<svg xmlns="http://www.w3.org/2000/svg" width="68.175" height="47.722" viewBox="0 0 68.175 47.722"><defs><style>.a{fill:#6a42ed;}</style></defs><path class="a" d="M52.427,31.361A8.522,8.522,0,1,0,43.9,22.839,8.5,8.5,0,0,0,52.427,31.361ZM26.861,27.952A10.226,10.226,0,1,0,16.635,17.726,10.184,10.184,0,0,0,26.861,27.952ZM52.427,38.179c-6.238,0-18.748,3.136-18.748,9.374v7.67h37.5v-7.67C71.175,41.315,58.665,38.179,52.427,38.179ZM26.861,34.77C18.919,34.77,3,38.758,3,46.7v8.522H26.861v-7.67c0-2.9,1.125-7.976,8.079-11.828A41.87,41.87,0,0,0,26.861,34.77Z" transform="translate(-3 -7.5)"/></svg>